<?xml version="1.0" standalone="no"?>
<!DOCTYPE svg PUBLIC "-//W3C//DTD SVG 20010904//EN"
 "http://www.w3.org/TR/2001/REC-SVG-20010904/DTD/svg10.dtd">
<svg version="1.0" xmlns="http://www.w3.org/2000/svg"
 width="500.000000pt" height="500.000000pt" viewBox="0 0 500.000000 500.000000"
 preserveAspectRatio="xMidYMid meet">

<g transform="translate(0.000000,500.000000) scale(0.100000,-0.100000)"
fill="#000000" stroke="none">
<path d="M2090 4909 c-14 -10 -42 -24 -62 -29 -21 -6 -59 -29 -85 -51 -25 -23
-56 -45 -67 -51 -12 -5 -32 -24 -46 -43 -14 -19 -35 -38 -48 -44 -12 -6 -26
-21 -31 -33 -9 -23 -63 -88 -73 -88 -3 0 -21 -15 -41 -34 -26 -25 -33 -36 -24
-45 8 -8 8 -14 0 -22 -7 -7 -9 -25 -6 -41 4 -19 0 -35 -12 -48 -9 -10 -14 -24
-10 -30 4 -6 2 -17 -4 -24 -6 -7 -11 -35 -12 -62 -1 -36 -10 -61 -32 -94 -17
-26 -25 -46 -18 -48 16 -5 13 -22 -4 -22 -8 0 -15 -4 -15 -10 0 -5 11 -10 24
-10 14 0 28 -4 31 -10 4 -6 -5 -10 -20 -10 -24 0 -25 -1 -12 -21 11 -14 12
-30 6 -56 -4 -21 -6 -41 -3 -45 3 -4 0 -8 -6 -8 -8 0 -9 -7 -5 -17 19 -47 25
-203 9 -235 -10 -19 -11 -29 -3 -34 6 -3 8 -15 5 -26 -2 -11 2 -31 11 -44 8
-13 13 -30 10 -39 -4 -8 -2 -17 3 -20 16 -10 12 -25 -6 -25 -13 0 -14 -3 -5
-14 7 -8 10 -37 7 -75 -4 -54 -2 -62 16 -72 14 -7 19 -18 16 -34 -4 -17 2 -27
24 -39 31 -19 40 -50 11 -39 -14 5 -13 0 6 -20 13 -14 29 -23 37 -20 22 8 18
125 -8 200 -18 54 -19 71 -10 106 6 23 24 94 40 157 30 117 76 222 139 318 28
42 47 58 97 81 59 27 116 37 116 21 0 -12 -29 -20 -35 -10 -4 6 -11 10 -17 10
-7 0 -6 -5 2 -15 8 -9 29 -15 59 -14 60 0 91 -4 91 -12 0 -20 -75 -45 -86 -28
-3 5 -13 9 -22 9 -12 0 -8 -6 12 -20 23 -14 41 -18 77 -14 41 4 50 1 63 -18
28 -39 20 -52 -16 -27 l-33 22 28 -29 c34 -37 34 -42 1 -46 -15 -2 -32 -11
-38 -21 -9 -14 -7 -21 11 -35 32 -24 66 -94 51 -103 -9 -6 -9 -11 1 -23 8 -9
18 -16 23 -16 14 0 1 60 -17 80 -18 19 -20 46 -4 55 13 9 19 3 24 -25 3 -13
16 -35 30 -50 27 -28 35 -50 10 -30 -12 10 -15 9 -15 -7 0 -11 -9 -28 -20 -38
-14 -12 -20 -14 -20 -5 0 7 -11 23 -25 36 -19 18 -25 33 -25 66 0 28 -3 38 -9
29 -18 -28 46 -180 67 -159 7 7 14 3 22 -12 14 -26 6 -38 -15 -20 -13 10 -19
10 -33 -2 -9 -8 -28 -19 -42 -25 -14 -6 -39 -30 -55 -53 l-29 -42 23 -19 c33
-27 19 -35 -19 -12 -29 17 -31 21 -25 58 3 22 9 75 13 118 6 68 11 82 34 102
15 13 33 25 40 28 7 2 10 8 5 12 -4 5 -13 3 -19 -3 -28 -28 -60 6 -36 37 16
19 -64 -42 -81 -63 -7 -8 -10 -20 -6 -26 8 -14 45 16 45 37 0 18 29 16 37 -3
3 -9 -6 -27 -23 -45 -21 -22 -28 -38 -27 -67 2 -37 -19 -82 -37 -82 -6 0 -10
7 -10 15 0 20 -25 19 -56 -2 -21 -13 -30 -14 -45 -4 -15 9 -30 9 -61 1 -22 -7
-51 -9 -64 -6 -32 8 -75 -31 -80 -72 -4 -36 -2 -37 61 -20 36 10 50 10 65 0
11 -7 36 -12 56 -12 42 0 114 -20 114 -31 0 -16 -18 -18 -64 -4 -51 16 -134 7
-165 -18 -40 -30 -40 -33 -27 -78 11 -38 18 -45 47 -50 18 -4 35 -12 37 -18 2
-5 10 -7 18 -4 17 6 19 24 3 21 -6 -2 -14 3 -16 10 -3 7 4 12 16 12 12 0 21 4
21 9 0 5 3 16 6 25 4 12 0 16 -15 16 -30 0 -26 17 6 23 32 6 73 -10 123 -47
l34 -26 -44 6 c-25 3 -56 1 -70 -4 -22 -9 -20 -10 15 -7 46 3 89 -10 80 -25
-3 -5 -2 -10 2 -10 5 0 14 12 19 28 8 21 6 29 -7 37 -9 6 -36 23 -60 40 -37
24 -54 29 -106 30 -68 0 -74 10 -13 20 53 9 107 -10 149 -51 34 -33 49 -41 53
-26 7 34 3 69 -10 78 -12 9 -10 13 12 27 24 16 28 16 51 1 31 -20 32 -31 3
-40 -20 -6 -20 -7 -4 -19 9 -7 16 -17 14 -21 -1 -5 3 -19 10 -31 6 -12 10 -28
7 -35 -2 -7 -6 -29 -9 -48 -3 -19 -12 -57 -20 -83 -15 -49 -15 -54 0 -92 4
-11 8 -27 8 -35 1 -8 11 -19 23 -26 13 -6 31 -18 40 -26 26 -23 63 -32 63 -16
1 7 19 -7 41 -31 22 -24 38 -49 36 -55 -7 -22 -68 -54 -102 -54 -19 0 -32 4
-29 9 3 5 11 9 17 9 17 0 68 50 62 60 -3 5 -25 12 -49 15 -37 6 -52 3 -89 -19
-44 -26 -46 -26 -52 -7 -7 22 11 65 24 56 5 -2 11 5 15 18 8 32 8 33 -18 45
-14 6 -26 21 -29 34 -4 21 -4 22 -6 2 0 -12 6 -27 14 -34 8 -7 15 -19 15 -27
0 -22 -61 -113 -75 -113 -7 0 -24 9 -39 21 -18 14 -34 19 -51 15 -25 -6 -25
-7 -10 -37 9 -17 32 -40 51 -51 19 -11 34 -23 34 -28 0 -13 -29 -32 -39 -26
-5 4 -12 -2 -16 -13 -7 -24 -41 -46 -83 -56 -43 -9 -72 -55 -72 -112 0 -36 3
-41 18 -36 9 3 22 12 29 20 6 8 16 12 22 8 10 -6 15 10 14 43 -1 6 3 12 7 12
4 0 10 9 13 21 3 12 10 18 16 14 6 -3 11 -1 11 4 0 6 7 11 15 11 9 0 27 7 41
16 23 16 25 15 50 -11 20 -21 28 -24 39 -15 7 6 15 20 17 30 3 17 6 18 25 7
11 -6 49 -27 82 -46 63 -35 80 -57 19 -25 -18 10 -39 17 -46 16 -7 -2 -15 4
-18 12 -5 14 -9 14 -33 0 -45 -26 -56 -52 -34 -77 13 -16 14 -18 2 -9 -14 10
-18 10 -22 -2 -4 -10 -20 -14 -54 -13 -77 3 -81 13 -31 64 23 25 34 41 22 35
-11 -6 -37 -29 -57 -51 -19 -22 -45 -45 -57 -51 -28 -15 -21 -32 15 -35 17 -2
35 -4 40 -6 6 -2 22 4 36 14 25 17 29 17 68 1 31 -12 61 -15 114 -12 l72 5
-28 -21 c-16 -11 -52 -43 -80 -69 -47 -44 -53 -46 -64 -31 -7 10 -14 16 -15
13 -2 -2 -14 -16 -27 -31 -24 -27 -24 -28 -6 -48 10 -11 30 -20 44 -20 28 0
82 -18 119 -39 13 -7 31 -9 40 -5 9 4 20 8 24 8 4 1 17 12 29 25 14 15 24 20
27 13 4 -14 -127 -141 -145 -142 -7 0 -13 -4 -13 -9 0 -5 -12 -23 -26 -40 -26
-32 -54 -41 -54 -18 0 6 -5 19 -10 27 -8 13 -11 12 -24 -5 -15 -20 -15 -20
-16 3 0 12 -4 22 -9 22 -37 0 -67 -187 -42 -260 5 -14 12 -34 16 -45 7 -19 7
-19 16 3 5 12 5 32 -1 45 -8 20 -9 21 -10 2 l-1 -20 -9 20 c-5 11 -9 27 -9 35
-1 13 0 13 9 0 7 -10 8 3 4 41 -4 38 -3 59 5 64 14 8 40 -11 52 -40 7 -15 8
-13 3 10 -5 28 -5 29 14 12 10 -9 24 -17 31 -17 8 0 10 -7 6 -19 -6 -19 -5
-19 32 -1 37 18 61 18 33 0 -10 -7 2 -8 34 -3 47 6 48 6 37 -15 -8 -15 -8 -22
-1 -22 5 0 10 4 10 9 0 18 65 8 103 -16 21 -13 42 -35 47 -48 5 -14 24 -34 42
-45 41 -25 61 -26 29 -1 -24 18 -39 61 -23 61 14 0 52 -46 52 -63 0 -9 11 -28
24 -43 23 -28 23 -28 3 -44 -20 -17 -20 -17 8 -74 15 -31 33 -59 39 -63 6 -4
5 1 -3 10 -8 10 -9 17 -3 17 6 0 13 -4 17 -10 4 -6 15 -6 32 1 29 11 38 7 30
-15 -8 -19 -47 -41 -47 -26 0 6 -17 -2 -37 -19 -21 -17 -43 -31 -50 -31 -15 0
-17 -16 -4 -25 5 -3 24 8 42 25 35 31 52 33 28 3 -8 -10 10 4 38 31 38 36 49
53 42 62 -10 13 27 41 86 65 20 8 25 13 15 16 -19 5 -43 40 -31 47 11 7 31
-17 66 -79 28 -49 28 -50 3 -27 -27 24 -47 30 -29 8 15 -18 18 -74 6 -100 -6
-15 -5 -17 5 -11 9 5 11 4 6 -4 -4 -6 -12 -9 -17 -6 -5 4 -9 -1 -9 -9 0 -9 -7
-16 -16 -16 -13 0 -14 -3 -5 -14 8 -10 10 -28 5 -53 -5 -21 -8 -42 -9 -48 -1
-5 -6 -23 -13 -38 -13 -31 -16 -68 -4 -52 4 6 12 11 19 12 6 2 30 21 51 42 22
22 42 37 46 34 3 -4 6 -1 6 6 0 7 14 26 30 41 17 15 30 33 30 40 0 6 5 8 10 5
6 -3 10 -1 10 6 0 6 8 19 18 28 26 24 122 152 122 163 0 5 4 7 10 3 22 -13
-164 -282 -290 -418 -65 -71 -184 -157 -216 -157 -20 0 -23 -4 -18 -28 4 -20
0 -34 -11 -46 -10 -9 -16 -18 -14 -20 12 -10 67 -13 79 -5 13 7 12 9 -2 9 -12
0 -18 8 -18 24 0 18 14 32 63 61 34 22 68 47 76 58 7 10 19 16 27 13 8 -3 48
33 101 89 87 92 123 117 159 110 11 -2 30 -4 44 -5 19 -1 12 -6 -30 -23 -31
-12 -48 -23 -38 -25 9 -2 26 2 37 7 11 6 29 11 41 11 11 0 39 9 61 21 54 27
60 18 13 -17 -21 -16 -48 -39 -61 -52 -13 -13 -38 -29 -56 -37 -19 -8 -39 -21
-47 -29 -7 -9 -19 -16 -27 -16 -13 0 -13 -3 -3 -15 15 -18 16 -17 -60 -70 -30
-21 -57 -40 -59 -41 -6 -5 38 -69 65 -94 23 -22 21 -17 -11 33 -21 31 -36 59
-34 60 30 24 69 47 78 47 6 0 11 -8 11 -19 0 -10 7 -24 15 -31 12 -10 23 -4
63 38 34 37 51 49 61 42 17 -10 38 -3 45 16 5 12 2 12 -15 3 -11 -6 -23 -8
-26 -5 -9 9 29 47 42 42 7 -2 31 7 55 20 35 20 41 21 36 7 -11 -27 108 88 132
128 14 23 37 42 64 54 24 10 58 32 77 49 27 25 33 27 27 11 -3 -11 -27 -38
-52 -60 -25 -22 -88 -80 -140 -128 -51 -49 -98 -86 -103 -83 -11 7 -169 -109
-212 -155 -30 -32 -45 -31 -59 6 -5 12 -17 25 -28 28 -15 3 -19 1 -15 -9 3 -8
11 -14 18 -14 7 0 18 -13 25 -30 13 -31 5 -54 -34 -93 -14 -13 -14 -16 1 -29
13 -10 15 -10 9 0 -10 16 8 31 95 77 86 47 163 114 292 255 58 63 123 125 146
138 23 12 41 19 41 15 0 -12 -193 -203 -235 -233 -26 -18 -41 -36 -41 -49 0
-12 3 -21 6 -21 13 0 50 32 46 39 -6 9 164 177 228 226 l44 33 7 -44 c6 -45 0
-69 -16 -59 -5 4 -9 2 -9 -4 0 -5 -26 -27 -57 -47 -32 -21 -60 -39 -62 -41 -2
-1 2 -9 8 -17 8 -10 9 -16 1 -21 -13 -8 -32 4 -25 16 4 5 -1 9 -9 9 -20 0 -20
-5 -1 -24 8 -8 12 -21 9 -30 -6 -16 -126 -96 -144 -96 -20 0 -9 20 20 35 16 8
34 24 40 34 16 32 11 36 -10 8 -36 -46 -111 -71 -96 -31 3 8 0 11 -10 7 -18
-7 -18 -12 2 -34 15 -17 13 -20 -34 -49 -28 -17 -53 -37 -56 -45 -4 -13 -2
-13 14 -5 11 6 20 14 20 19 0 12 87 54 99 47 5 -4 32 7 59 24 52 32 68 37 56
19 -4 -8 0 -8 15 0 11 7 21 15 21 20 0 17 73 101 88 101 13 0 13 3 4 12 -7 7
-12 17 -12 22 0 6 5 5 12 -2 16 -16 33 -15 20 1 -15 18 53 66 70 49 18 -18 -8
-56 -74 -108 -33 -25 -57 -52 -55 -58 8 -20 -41 -75 -86 -98 -23 -11 -60 -37
-83 -58 -23 -21 -50 -41 -62 -44 -25 -8 -56 -52 -42 -61 15 -9 30 4 30 26 0
11 10 23 23 28 13 5 29 16 37 25 7 10 41 33 74 52 34 20 69 45 78 57 15 18 19
20 27 7 5 -8 7 -18 5 -22 -3 -4 4 -8 15 -8 11 0 23 4 26 10 3 5 0 7 -9 4 -8
-3 -19 3 -25 14 -8 15 -6 24 8 38 9 11 16 24 14 31 -4 10 64 73 79 73 5 0 8
-9 8 -21 0 -15 5 -19 15 -15 10 3 15 -1 15 -14 0 -24 -20 -37 -21 -13 0 14 -2
15 -6 3 -3 -8 -11 -18 -17 -23 -7 -5 -5 -11 7 -18 22 -13 22 -25 -3 -51 -11
-12 -20 -27 -20 -34 0 -7 -9 -16 -20 -19 -20 -6 -28 -25 -11 -25 17 0 90 89
97 117 3 15 10 44 15 63 5 19 14 98 21 175 10 123 10 151 -5 224 -9 46 -29
109 -45 140 -24 49 -31 56 -54 53 -28 -3 -88 22 -88 37 0 5 6 12 13 14 6 3 -1
3 -18 1 -22 -4 -53 7 -120 41 -49 26 -102 56 -117 66 -29 21 -82 111 -100 172
-10 34 -10 40 5 49 23 12 21 30 -4 51 -19 16 -20 25 -14 100 9 109 62 293 91
318 8 6 14 18 14 25 0 8 10 14 23 14 13 0 32 7 43 15 16 13 17 16 4 25 -13 9
-13 10 0 11 8 1 26 1 39 1 33 -2 64 17 57 34 -3 9 -1 12 4 9 6 -3 10 2 11 12
0 11 3 13 6 5 4 -10 8 -10 19 -1 8 6 11 15 8 20 -3 5 2 9 10 9 10 0 13 6 10
15 -4 11 5 20 32 31 50 21 51 22 28 39 -19 14 -18 15 4 21 12 3 22 12 22 20 0
7 9 19 21 27 15 11 17 16 7 21 -7 3 -2 4 11 2 17 -3 25 1 28 15 3 10 9 19 14
19 5 0 14 11 19 25 5 14 16 25 23 25 18 0 37 43 30 68 -3 13 3 28 16 41 12 12
21 27 21 35 0 7 7 19 16 27 8 7 14 22 12 34 -3 13 7 33 29 55 28 30 32 40 27
68 -4 18 -2 32 4 32 5 0 14 12 20 28 11 28 13 42 14 100 1 22 6 31 14 28 8 -3
16 -1 19 4 4 6 3 10 -2 10 -14 0 -32 49 -21 56 6 4 9 34 6 75 -5 63 -4 69 14
69 16 0 17 3 8 20 -8 16 -8 22 3 26 17 6 21 82 5 101 -6 7 -8 22 -5 32 3 11
-2 29 -9 40 -13 18 -13 24 2 46 15 24 15 27 0 44 -9 9 -16 23 -16 29 0 7 -5
12 -12 12 -7 0 -5 7 5 18 15 16 15 20 -2 45 -10 15 -26 34 -37 42 -14 11 -16
17 -6 23 9 6 3 18 -21 48 -19 21 -37 51 -41 66 -3 15 -24 42 -46 59 -22 18
-40 38 -40 44 0 7 -23 28 -52 46 -37 24 -59 48 -77 82 -24 48 -95 116 -159
153 -18 10 -30 24 -27 32 3 8 -6 15 -25 18 -16 4 -42 21 -59 39 -16 18 -45 36
-63 40 -18 4 -37 11 -43 15 -5 4 -30 10 -55 14 -25 4 -59 14 -75 24 -26 14
-72 17 -364 20 -237 2 -341 0 -361 -8 -19 -8 -34 -9 -47 -2 -14 8 -25 6 -43
-9z m-220 -833 c0 -2 -7 -9 -15 -16 -13 -11 -14 -10 -9 4 5 14 24 23 24 12z
m1877 -48 c-3 -8 -6 -5 -6 6 -1 11 2 17 5 13 3 -3 4 -12 1 -19z m-1503 -29
c-6 -11 -24 -2 -24 11 0 5 7 7 15 4 8 -4 12 -10 9 -15z m-37 -31 c48 -51 94
-132 63 -113 -5 3 -10 -1 -10 -10 0 -10 6 -15 13 -12 14 5 43 -31 33 -40 -3
-3 -1 -15 5 -27 7 -15 5 -14 -8 4 -10 14 -35 44 -56 66 -28 31 -38 51 -40 80
-1 27 -8 41 -20 46 -10 4 -16 12 -12 17 3 6 -3 14 -12 20 -10 6 -13 11 -8 11
6 0 29 -19 52 -42z m174 9 c10 -36 4 -34 -15 4 -10 19 -11 29 -4 27 7 -3 15
-16 19 -31z m-41 -33 c0 -6 6 -17 14 -23 11 -9 15 -9 19 1 3 7 6 2 6 -12 1
-15 4 -30 9 -36 4 -5 -16 16 -45 46 -56 59 -68 82 -28 53 13 -10 25 -23 25
-29z m-5 -82 c10 -41 11 -52 1 -52 -16 0 -36 43 -36 75 0 13 -5 25 -12 27 -7
3 -8 10 -4 17 13 21 35 -8 51 -67z m116 51 c13 -16 12 -17 -3 -4 -10 7 -18 15
-18 17 0 8 8 3 21 -13z m-11 -34 c0 -18 -18 -9 -23 12 -4 16 -3 18 9 8 8 -6
14 -15 14 -20z m-218 -36 c17 -17 28 -37 28 -54 0 -45 -18 -43 -31 3 -16 56
-15 55 -39 27 l-20 -24 -6 22 c-4 14 -11 20 -22 16 -10 -5 -13 -3 -8 6 5 7 14
10 21 7 8 -3 19 2 25 10 17 19 20 18 52 -13z m68 -95 c0 -5 12 -26 27 -46 16
-20 21 -31 12 -25 -9 7 -19 11 -22 8 -4 -3 -5 -2 -3 1 2 3 -7 22 -20 41 -27
40 -32 62 -9 43 8 -7 15 -17 15 -22z m100 6 c0 -8 -4 -12 -10 -9 -5 3 -10 13
-10 21 0 8 5 12 10 9 6 -3 10 -13 10 -21z m-385 -33 c-3 -6 -11 -11 -17 -11
-6 0 -6 6 2 15 14 17 26 13 15 -4z m357 4 c0 -5 -5 -11 -11 -13 -6 -2 -11 4
-11 13 0 9 5 15 11 13 6 -2 11 -8 11 -13z m192 -86 c-13 -15 -28 -18 -66 -16
-27 1 -52 -1 -54 -5 -3 -4 -22 -8 -42 -8 -20 0 -46 -7 -56 -15 -11 -8 -28 -15
-37 -15 -16 0 -17 3 -3 28 7 15 14 32 14 37 0 6 40 10 102 9 57 0 112 2 123 6
29 11 39 1 19 -21z m-298 -47 c-15 -15 -16 -13 -16 28 l1 45 15 -29 c14 -26
14 -30 0 -44z m374 48 c6 9 11 7 19 -9 12 -21 8 -41 -8 -41 -9 0 -31 46 -30
63 1 7 4 3 6 -7 4 -14 7 -16 13 -6z m-70 -150 c-32 -25 -39 -25 -33 0 4 14 14
20 32 20 l26 0 -25 -20z m-52 -10 c-7 -11 -17 -20 -22 -20 -5 0 -1 9 9 20 10
11 20 20 22 20 2 0 -2 -9 -9 -20z m192 5 c-7 -9 -15 -13 -17 -11 -7 7 7 26 19
26 6 0 6 -6 -2 -15z m73 -18 c3 -8 -1 -14 -8 -14 -7 0 -11 6 -8 14 3 7 6 13 8
13 2 0 5 -6 8 -13z m-416 -13 c-3 -3 -12 -4 -19 -1 -8 3 -5 6 6 6 11 1 17 -2
13 -5z m-154 -49 c-7 -21 -13 -19 -13 6 0 11 4 18 10 14 5 -3 7 -12 3 -20z
m252 -26 c10 -15 -1 -23 -20 -15 -9 3 -13 10 -10 16 8 13 22 13 30 -1z m96
-13 l53 -23 -31 -17 c-43 -22 -97 -22 -89 0 3 9 6 27 6 40 0 13 2 24 4 24 2 0
28 -11 57 -24z m-211 -6 c-10 -19 -81 -70 -97 -70 -5 0 14 20 40 45 52 48 75
58 57 25z m-720 -75 c0 -8 -4 -15 -10 -15 -5 0 -10 7 -10 15 0 8 5 15 10 15 6
0 10 -7 10 -15z m790 7 c0 -10 -100 -35 -108 -27 -10 10 10 19 56 26 26 3 48
7 50 8 1 0 2 -3 2 -7z m37 2 c-3 -3 -12 -4 -19 -1 -8 3 -5 6 6 6 11 1 17 -2
13 -5z m-43 -69 c31 -14 65 -25 76 -25 16 0 20 -7 20 -30 0 -27 2 -29 19 -21
14 8 23 6 36 -9 17 -19 17 -21 0 -41 l-19 -20 -18 23 c-13 17 -18 19 -18 7 0
-9 9 -24 19 -33 18 -17 20 -16 45 17 14 19 26 41 26 50 0 32 18 26 46 -16 16
-23 38 -54 50 -69 22 -27 23 -71 1 -85 -6 -4 -7 7 -3 30 6 32 3 40 -29 74 -40
42 -45 35 -14 -21 11 -21 17 -41 13 -45 -4 -3 -9 0 -11 7 -4 9 -9 10 -18 2 -9
-8 -17 -4 -29 15 -9 14 -12 25 -6 25 5 0 10 5 10 10 0 19 -15 9 -39 -25 -27
-41 -32 -42 -48 -15 -11 17 -10 18 5 13 12 -4 10 2 -9 23 -26 29 -51 72 -64
109 -7 18 -8 17 -20 -9 l-12 -29 -48 47 c-37 37 -45 50 -34 57 8 5 15 9 15 9
1 0 27 -11 58 -25z m-243 -22 c-8 -15 -10 -15 -11 -2 0 17 10 32 18 25 2 -3
-1 -13 -7 -23z m539 6 c0 -6 -4 -7 -10 -4 -5 3 -10 11 -10 16 0 6 5 7 10 4 6
-3 10 -11 10 -16z m71 -60 c8 -5 9 -9 3 -9 -7 0 -14 -9 -17 -21 -10 -36 -24
-12 -25 42 -1 65 10 87 19 35 3 -21 12 -42 20 -47z m704 9 c-17 -124 -103
-248 -208 -299 l-44 -22 -31 23 c-17 12 -33 31 -35 42 -5 19 -5 19 13 3 12
-11 28 -15 42 -12 13 3 36 9 52 13 17 4 39 15 50 25 12 11 38 33 59 50 53 45
63 67 92 202 10 47 17 29 10 -25z m-799 17 c9 -14 17 -39 18 -55 1 -17 7 -30
14 -30 6 0 12 -4 12 -10 0 -16 -15 -12 -34 8 -9 11 -15 30 -14 43 2 16 -2 23
-11 21 -7 -1 -19 2 -27 9 -10 8 -11 14 -1 24 17 20 24 18 43 -10z m-486 4 c0
-5 -4 -8 -9 -4 -6 3 -14 -3 -20 -12 -6 -10 -11 -13 -11 -7 0 12 20 34 32 34 4
0 8 -5 8 -11z m376 1 c-17 -6 -36 -5 -45 0 -11 7 -3 9 29 9 42 -1 43 -1 16 -9z
m800 -10 c5 0 11 -9 12 -21 4 -21 3 -21 -13 -6 -9 10 -20 17 -25 17 -5 0 -7 7
-3 16 4 11 8 12 13 4 4 -6 11 -11 16 -10z m-1116 -12 c10 -21 10 -21 -3 -6 -8
10 -17 15 -20 11 -4 -3 -7 -1 -7 5 0 20 19 13 30 -10z m1146 -83 c-7 -40 -14
-51 -64 -91 -31 -25 -64 -49 -73 -54 -15 -8 -16 -7 -5 15 6 14 15 23 21 22 15
-5 104 104 111 136 9 45 17 23 10 -28z m-1011 24 c-4 -5 -14 -8 -23 -8 -15 1
-15 2 1 6 9 2 14 9 11 15 -4 7 -2 8 5 4 6 -4 9 -12 6 -17z m785 -3 c0 -2 -8
-10 -17 -17 -16 -13 -17 -12 -4 4 13 16 21 21 21 13z m-826 -14 c7 -11 -52
-68 -60 -59 -10 10 17 38 29 30 6 -3 7 -1 3 5 -8 13 0 32 14 32 5 0 11 -4 14
-8z m870 -1 c8 -12 -51 -84 -70 -87 -21 -3 -9 30 24 67 29 30 37 34 46 20z
m-806 -18 c-23 -6 -23 -12 5 -41 12 -14 16 -22 10 -18 -20 11 -62 -44 -64 -84
-2 -31 -3 -32 -6 -7 -2 15 -9 27 -14 27 -5 0 -9 8 -9 18 0 10 -5 23 -12 30
-21 21 49 82 92 80 10 0 9 -2 -2 -5z m42 -18 c10 -12 10 -15 -4 -15 -9 0 -16
7 -16 15 0 8 2 15 4 15 2 0 9 -7 16 -15z m94 -87 l38 -53 -38 39 -37 39 -22
-27 c-18 -23 -23 -25 -28 -12 -4 9 -14 16 -23 16 -13 0 -15 -11 -13 -69 3 -61
1 -74 -20 -102 -16 -21 -20 -34 -13 -37 15 -5 15 -39 0 -48 -8 -5 -9 -2 -4 11
7 18 6 18 -12 1 -19 -16 -20 -16 -25 21 -4 33 -1 42 24 66 17 15 27 32 23 38
-4 8 -9 8 -17 0 -6 -6 -18 -11 -26 -11 -11 0 -10 5 5 23 24 27 44 71 44 97 0
11 5 20 12 20 6 0 20 7 30 17 18 17 23 10 19 -26 -2 -11 0 -11 12 0 8 7 12 21
9 31 -9 36 24 17 62 -34z m33 20 c-3 -7 -5 -2 -5 12 0 14 2 19 5 13 2 -7 2
-19 0 -25z m703 28 c0 -3 -4 -8 -10 -11 -5 -3 -10 -1 -10 4 0 6 5 11 10 11 6
0 10 -2 10 -4z m-39 -39 c-16 -16 -26 0 -10 19 9 11 15 12 17 4 2 -6 -1 -17
-7 -23z m-485 6 c7 -10 13 -31 14 -48 0 -21 -3 -26 -9 -16 -5 8 -7 19 -5 26 3
6 -2 18 -11 25 -15 13 -20 30 -9 30 4 0 13 -8 20 -17z m-96 -23 c-7 -4 -10
-12 -6 -18 3 -6 2 -13 -3 -16 -5 -4 -12 -2 -16 4 -9 14 14 52 27 44 7 -4 6 -9
-2 -14z m167 -20 c-2 -23 -10 -17 -12 10 -1 10 2 17 6 14 4 -2 7 -13 6 -24z
m-315 -2 c-5 -7 -12 -22 -15 -33 -4 -16 -5 -15 -6 6 -1 27 6 39 22 39 6 0 5
-5 -1 -12z m-54 -42 c4 -35 -14 -26 -20 9 -4 16 -1 24 6 22 6 -2 12 -16 14
-31z m100 5 c3 -8 -1 -12 -9 -9 -7 2 -15 10 -17 17 -3 8 1 12 9 9 7 -2 15 -10
17 -17z m142 9 c0 -5 -4 -10 -10 -10 -5 0 -10 5 -10 10 0 6 5 10 10 10 6 0 10
-4 10 -10z m-55 -22 c15 -45 14 -83 -2 -95 -14 -11 -14 -15 1 -37 18 -28 21
-46 7 -46 -5 0 -16 18 -25 40 -18 46 -20 64 -7 55 18 -10 25 64 8 81 -10 10
-9 24 2 24 5 0 12 -10 16 -22z m-65 -40 l-20 -22 0 23 c0 30 22 54 33 35 5 -9
0 -22 -13 -36z m200 22 c0 -5 -5 -10 -11 -10 -5 0 -7 5 -4 10 3 6 8 10 11 10
2 0 4 -4 4 -10z m-825 -21 c24 -6 51 -19 60 -29 15 -17 15 -19 -5 -33 -16 -11
-18 -16 -7 -20 17 -6 37 11 37 30 0 13 22 18 33 7 8 -8 -26 -73 -38 -74 -6 0
-17 6 -24 13 -10 9 -15 9 -18 0 -5 -13 -33 -6 -33 8 0 4 8 5 18 2 14 -6 15 -4
5 8 -7 9 -14 26 -16 40 -3 18 -10 24 -31 25 -32 1 -73 34 -43 34 10 0 38 -5
62 -11z m495 -36 c-11 -17 -11 -17 -6 0 3 10 7 26 7 35 1 15 2 15 6 0 2 -10
-1 -25 -7 -35z m59 -29 c-34 -66 -55 -91 -66 -80 -4 4 -3 10 2 14 6 4 21 27
34 51 25 45 53 83 58 78 1 -2 -11 -30 -28 -63z m-172 34 c-2 -7 -11 -12 -20
-10 -12 2 -15 -4 -12 -28 3 -22 -2 -36 -15 -47 -10 -9 -16 -21 -13 -26 4 -6 1
-7 -6 -3 -9 6 -9 12 3 25 9 10 16 23 16 29 0 16 -20 15 -21 0 -1 -7 -4 -2 -8
12 -7 22 -3 27 28 42 44 20 54 22 48 6z m803 -7 c0 -5 -7 -14 -15 -21 -8 -7
-15 -23 -15 -36 0 -25 -15 -40 -25 -24 -3 5 -1 10 4 10 6 0 10 3 9 8 -4 12 24
72 33 72 5 0 9 -4 9 -9z m-548 -59 c6 -7 8 -16 4 -19 -11 -12 -26 19 -24 52 1
27 1 28 5 5 3 -14 10 -31 15 -38z m178 38 c0 -5 -4 -10 -10 -10 -5 0 -10 5
-10 10 0 6 5 10 10 10 6 0 10 -4 10 -10z m-196 -100 c-6 -6 -10 -3 -10 10 0
13 4 16 10 10 7 -7 7 -13 0 -20z m519 -9 c-3 -10 -25 -38 -50 -62 l-46 -44 37
55 c20 30 36 63 36 74 0 15 3 16 14 7 8 -7 12 -20 9 -30z m127 29 c0 -5 -5
-10 -11 -10 -5 0 -7 5 -4 10 3 6 8 10 11 10 2 0 4 -4 4 -10z m-573 -67 c-10
-10 -17 -13 -16 -8 4 26 -2 56 -11 50 -5 -3 -10 2 -10 12 0 15 5 13 27 -10 26
-26 27 -28 10 -44z m-384 -41 c4 9 6 9 6 1 2 -20 -16 -24 -30 -5 -13 15 -12
16 3 4 13 -10 17 -10 21 0z m34 -14 c-3 -8 -6 -5 -6 6 -1 11 2 17 5 13 3 -3 4
-12 1 -19z m548 13 c3 -5 1 -12 -5 -16 -5 -3 -10 1 -10 9 0 18 6 21 15 7z
m-312 -68 c-4 -9 -2 -14 3 -10 6 3 16 -3 22 -14 12 -19 12 -19 -13 -3 -26 17
-30 26 -18 37 11 11 13 8 6 -10z m-152 -3 c0 -5 1 -23 1 -40 0 -71 -2 -81 -14
-74 -8 5 -9 2 -5 -9 5 -12 1 -17 -13 -17 -21 0 -27 15 -10 25 13 8 13 55 0 55
-5 0 -14 -8 -20 -17 -9 -14 -9 -11 -4 17 l6 35 -25 -23 c-14 -13 -28 -19 -31
-14 -8 13 23 39 57 47 15 4 30 11 33 16 7 12 24 11 25 -1z m129 -70 c0 -6 -9
-2 -20 7 -11 10 -20 19 -20 21 0 1 9 -2 20 -8 11 -6 20 -15 20 -20z m-328 -29
c-48 -43 -88 -60 -77 -34 3 9 0 21 -7 26 -9 6 -8 7 5 3 9 -3 17 -1 17 5 0 6 6
9 14 6 7 -3 26 3 42 14 48 32 52 21 6 -20z m78 4 c0 -9 -7 -18 -15 -21 -9 -4
-15 -11 -14 -18 3 -24 -1 -37 -11 -31 -6 3 -6 15 0 29 5 13 6 26 3 29 -8 9 7
27 23 27 8 0 14 -7 14 -15z m50 -30 c14 -19 14 -19 -2 -6 -10 7 -18 18 -18 24
0 6 1 8 3 6 1 -2 9 -13 17 -24z m70 -59 c0 -19 4 -37 9 -41 11 -6 11 -45 0
-45 -7 0 -21 51 -25 93 -1 15 2 27 7 27 5 0 9 -15 9 -34z m-35 -55 c2 -18 0
-29 -5 -26 -6 4 -10 12 -10 20 0 8 -10 31 -22 52 l-21 38 27 -26 c15 -14 29
-40 31 -58z m-75 59 c0 -5 -2 -10 -4 -10 -3 0 -8 5 -11 10 -3 6 -1 10 4 10 6
0 11 -4 11 -10z m-97 -19 c25 -2 21 -19 -5 -23 -25 -4 -68 11 -68 23 0 4 12 6
28 5 15 -2 35 -4 45 -5z m164 -100 c10 -6 14 -10 8 -10 -18 0 -44 25 -55 53
-17 46 -10 54 10 9 10 -22 27 -46 37 -52z m-67 59 c0 -5 -4 -10 -10 -10 -5 0
-10 5 -10 10 0 6 5 10 10 10 6 0 10 -4 10 -10z m-29 -58 c-16 -29 -14 -37 6
-21 14 12 16 12 11 -1 -8 -24 -34 -23 -45 3 -9 19 -8 27 5 39 22 20 37 6 23
-20z m-38 -31 c10 -20 11 -34 5 -46 -9 -15 -13 -13 -38 17 -26 30 -27 35 -13
50 19 21 27 17 46 -21z m-54 -29 c12 -23 -2 -47 -23 -39 -23 9 -32 37 -15 48
20 13 27 11 38 -9z m697 -159 c-10 -10 -19 5 -10 18 6 11 8 11 12 0 2 -7 1
-15 -2 -18z m-576 -43 c0 -5 -4 -10 -10 -10 -5 0 -10 5 -10 10 0 6 5 10 10 10
6 0 10 -4 10 -10z m17 -12 c-3 -8 -6 -5 -6 6 -1 11 2 17 5 13 3 -3 4 -12 1
-19z m68 12 c8 -13 -15 -13 -35 0 -12 8 -11 10 7 10 12 0 25 -4 28 -10z m475
-9 c0 -5 -7 -12 -16 -15 -14 -5 -15 -4 -4 9 14 17 20 19 20 6z m-62 -72 c-3
-8 -7 -3 -11 10 -4 17 -3 21 5 13 5 -5 8 -16 6 -23z m67 22 c3 -5 0 -13 -6
-17 -7 -4 -9 -3 -5 4 3 5 0 13 -6 15 -9 4 -10 6 -1 6 6 1 14 -3 18 -8z m-105
-11 c0 -5 -4 -10 -10 -10 -5 0 -10 5 -10 10 0 6 5 10 10 10 6 0 10 -4 10 -10z
m5 -63 c-36 -23 -74 -36 -80 -27 -9 14 36 40 69 40 28 0 29 -1 11 -13z m35
-23 c0 -8 -5 -12 -10 -9 -6 4 -8 11 -5 16 9 14 15 11 15 -7z m-270 -4 c0 -5
-7 -10 -16 -10 -8 0 -12 5 -9 10 3 6 10 10 16 10 5 0 9 -4 9 -10z m100 -16 c0
-18 -4 -18 -24 5 -17 19 -17 19 3 14 12 -3 21 -12 21 -19z m145 6 c3 -6 -1 -7
-9 -4 -18 7 -21 14 -7 14 6 0 13 -4 16 -10z m-197 -52 c-17 -10 -53 26 -43 42
5 8 14 5 31 -11 18 -17 21 -25 12 -31z m36 17 c9 -14 15 -25 13 -25 -2 0 -14
11 -27 25 -13 14 -19 25 -13 25 6 0 18 -11 27 -25z m116 9 c0 -8 -4 -12 -10
-9 -5 3 -10 10 -10 16 0 5 5 9 10 9 6 0 10 -7 10 -16z m45 -14 c17 -19 17 -20
1 -20 -9 0 -14 5 -11 10 3 6 -1 10 -10 10 -9 0 -13 5 -10 10 8 13 9 13 30 -10z
m-243 -7 c22 -19 24 -63 4 -63 -20 0 -29 17 -14 23 9 4 10 8 2 14 -13 10 -26
43 -17 43 4 0 15 -7 25 -17z m500 -15 c-8 -8 -9 -4 -5 13 4 13 8 18 11 10 2
-7 -1 -18 -6 -23z m-545 0 c-3 -8 -6 -5 -6 6 -1 11 2 17 5 13 3 -3 4 -12 1
-19z m268 -18 c10 -11 16 -20 13 -20 -3 0 -13 9 -23 20 -10 11 -16 20 -13 20
3 0 13 -9 23 -20z m-190 -50 c3 -6 -1 -13 -10 -16 -19 -8 -30 0 -20 15 8 14
22 14 30 1z m635 -4 c0 -3 -4 -8 -10 -11 -5 -3 -10 -1 -10 4 0 6 5 11 10 11 6
0 10 -2 10 -4z m-139 -40 c-7 -8 -8 -16 -4 -18 4 -3 3 -3 -4 -2 -7 2 -15 -6
-18 -17 -6 -19 -25 -27 -25 -10 0 13 40 61 52 61 7 0 6 -5 -1 -14z m159 -7 c0
-5 -7 -9 -15 -9 -9 0 -12 6 -9 15 6 15 24 11 24 -6z m191 -6 c12 -15 12 -16
-2 -11 -11 4 -16 1 -15 -9 0 -9 -5 -18 -11 -20 -8 -3 -13 5 -13 20 0 14 6 28
13 30 6 3 13 6 13 6 1 1 8 -7 15 -16z m-251 -1 c0 -5 -7 -9 -15 -9 -8 0 -15 4
-15 9 0 4 7 8 15 8 8 0 15 -4 15 -8z m193 -55 c-3 -6 -11 -3 -19 8 -7 10 -11
22 -7 28 3 6 11 3 19 -8 7 -10 11 -22 7 -28z m87 8 c-7 -8 -9 -15 -4 -15 10 0
-36 -49 -58 -61 -9 -5 -24 -6 -33 -2 -14 5 -11 8 13 19 17 7 40 26 53 43 12
17 27 31 32 31 5 0 4 -7 -3 -15z m-430 -9 c0 -2 -7 -9 -15 -16 -13 -11 -14
-10 -9 4 5 14 24 23 24 12z m120 -15 c0 -5 -7 -12 -16 -15 -14 -5 -15 -4 -4 9
14 17 20 19 20 6z m60 5 c0 -2 -7 -9 -15 -16 -13 -11 -14 -10 -9 4 5 14 24 23
24 12z m125 -27 c-6 -16 -9 -18 -16 -8 -4 8 -3 19 3 26 15 18 21 9 13 -18z
m-25 -29 c0 -5 -4 -10 -10 -10 -5 0 -10 5 -10 10 0 6 5 10 10 10 6 0 10 -4 10
-10z m-95 -29 c-3 -6 -11 -11 -16 -11 -5 0 -4 6 3 14 14 16 24 13 13 -3z m59
11 c3 -5 -1 -9 -9 -9 -8 0 -12 4 -9 9 3 4 7 8 9 8 2 0 6 -4 9 -8z m-30 -71
c-16 -10 -51 -27 -76 -39 -25 -11 -58 -36 -74 -57 -16 -20 -56 -66 -90 -101
-52 -56 -63 -63 -74 -50 -10 13 -6 23 26 60 54 62 183 161 230 177 21 7 43 17
49 21 5 4 16 8 25 8 8 0 1 -8 -16 -19z m43 -7 c-3 -3 -12 -4 -19 -1 -8 3 -5 6
6 6 11 1 17 -2 13 -5z m-105 -54 c-34 -32 -26 -33 18 -4 22 15 43 24 47 20 9
-9 -27 -34 -103 -71 l-61 -31 13 26 c13 24 80 79 98 80 6 0 0 -9 -12 -20z
m-242 -120 c0 -5 -5 -10 -11 -10 -5 0 -7 5 -4 10 3 6 8 10 11 10 2 0 4 -4 4
-10z m218 -41 c-17 -21 -35 -39 -39 -39 -4 0 -29 -20 -55 -44 -51 -45 -112
-81 -121 -72 -8 7 42 67 76 91 16 11 54 37 85 57 31 21 56 42 56 48 0 5 7 7
15 4 11 -5 8 -14 -17 -45z m252 41 c0 -5 -8 -10 -17 -10 -15 0 -16 2 -3 10 19
12 20 12 20 0z m-494 -64 c16 -16 19 -46 5 -46 -5 0 -14 14 -20 30 -11 33 -7
37 15 16z"/>
<path d="M2460 3165 c0 -8 5 -15 10 -15 6 0 10 7 10 15 0 8 -4 15 -10 15 -5 0
-10 -7 -10 -15z"/>
<path d="M3200 2870 c0 -5 5 -10 11 -10 5 0 7 5 4 10 -3 6 -8 10 -11 10 -2 0
-4 -4 -4 -10z"/>
<path d="M2359 3021 c-13 -11 -19 -20 -13 -21 15 0 50 27 43 34 -3 4 -17 -2
-30 -13z"/>
<path d="M2361 2754 c0 -11 3 -14 6 -6 3 7 2 16 -1 19 -3 4 -6 -2 -5 -13z"/>
<path d="M3075 1290 c-16 -7 -17 -9 -3 -9 9 -1 20 4 23 9 7 11 7 11 -20 0z"/>
<path d="M1950 3961 c0 -5 5 -13 10 -16 6 -3 10 -2 10 4 0 5 -4 13 -10 16 -5
3 -10 2 -10 -4z"/>
<path d="M1925 3939 c-10 -15 3 -25 16 -12 7 7 7 13 1 17 -6 3 -14 1 -17 -5z"/>
<path d="M1976 3869 c-42 -37 -51 -59 -25 -59 6 0 7 5 4 11 -9 14 66 81 83 74
7 -3 10 0 7 5 -10 16 -20 12 -69 -31z"/>
<path d="M1861 3857 c-8 -10 -7 -14 4 -14 8 0 15 6 15 14 0 7 -2 13 -4 13 -2
0 -9 -6 -15 -13z"/>
<path d="M2005 3860 c-3 -5 1 -10 10 -10 9 0 13 5 10 10 -3 6 -8 10 -10 10 -2
0 -7 -4 -10 -10z"/>
<path d="M1944 3748 l-19 -23 23 19 c21 18 27 26 19 26 -2 0 -12 -10 -23 -22z"/>
<path d="M1794 3686 c-9 -20 -9 -26 2 -30 7 -3 16 0 20 6 4 7 3 8 -5 4 -8 -6
-10 0 -5 18 8 33 2 33 -12 2z"/>
<path d="M1870 3651 c0 -5 7 -12 16 -15 14 -5 15 -4 4 9 -14 17 -20 19 -20 6z"/>
<path d="M1867 3240 c-14 -12 -38 -27 -53 -34 -26 -14 -26 -14 -5 -25 21 -12
68 5 116 43 17 13 18 17 5 26 -22 14 -34 12 -63 -10z"/>
<path d="M1849 3130 c-18 -15 -20 -19 -8 -20 9 0 24 9 34 20 23 26 4 26 -26 0z"/>
<path d="M1786 3095 c-27 -21 -10 -38 19 -19 14 9 22 20 19 25 -7 12 -16 11
-38 -6z"/>
<path d="M1884 3048 c-4 -7 -14 -24 -22 -38 -14 -24 -13 -24 3 -5 20 24 37 55
31 55 -3 0 -8 -6 -12 -12z"/>
<path d="M1694 2987 c-40 -47 -47 -61 -18 -34 17 15 35 27 41 27 6 0 13 7 17
15 8 23 -18 18 -40 -8z"/>
<path d="M1717 2883 c-4 -3 -7 -13 -7 -22 1 -13 3 -13 11 2 11 19 8 33 -4 20z"/>
<path d="M1700 2720 c-8 -5 -12 -12 -9 -15 4 -3 12 1 19 10 14 17 11 19 -10 5z"/>
<path d="M1950 2610 c0 -5 5 -10 11 -10 5 0 7 5 4 10 -3 6 -8 10 -11 10 -2 0
-4 -4 -4 -10z"/>
<path d="M1760 2490 c0 -5 5 -10 11 -10 5 0 7 5 4 10 -3 6 -8 10 -11 10 -2 0
-4 -4 -4 -10z"/>
<path d="M1867 2391 c-4 -17 -3 -21 5 -13 5 5 8 16 6 23 -3 8 -7 3 -11 -10z"/>
<path d="M1945 2291 c-4 -8 -1 -19 8 -28 19 -20 30 -1 13 22 -10 14 -15 15
-21 6z"/>
<path d="M1810 2263 c-13 -15 -13 -16 2 -11 8 4 21 1 27 -5 12 -12 14 -7 5 17
-8 20 -15 20 -34 -1z"/>
<path d="M2043 2240 c-11 -16 -10 -18 2 -14 8 4 15 11 15 18 0 6 5 4 11 -4 9
-12 10 -12 7 -1 -6 23 -22 23 -35 1z"/>
<path d="M1840 2195 c0 -23 6 -38 16 -42 27 -10 37 12 20 46 -22 41 -36 39
-36 -4z"/>
<path d="M2024 2199 c-8 -14 11 -33 25 -25 6 4 11 11 11 16 0 13 -29 20 -36 9z"/>
<path d="M1830 1990 c-9 -6 -10 -10 -3 -10 6 0 15 5 18 10 8 12 4 12 -15 0z"/>
<path d="M1831 1944 c0 -11 3 -14 6 -6 3 7 2 16 -1 19 -3 4 -6 -2 -5 -13z"/>
<path d="M2185 1891 c17 -15 39 -40 50 -54 11 -15 24 -27 28 -27 15 0 -68 98
-88 104 -15 4 -13 -1 10 -23z"/>
<path d="M2085 1890 c-10 -11 -16 -22 -13 -25 3 -3 13 4 23 15 10 11 16 22 13
25 -3 3 -13 -4 -23 -15z"/>
<path d="M1861 1834 c0 -11 3 -14 6 -6 3 7 2 16 -1 19 -3 4 -6 -2 -5 -13z"/>
<path d="M2171 1808 c-18 -21 -27 -36 -19 -33 15 6 63 64 56 69 -1 1 -18 -15
-37 -36z"/>
<path d="M1926 1824 c-9 -22 -8 -24 10 -24 12 0 15 -6 10 -24 -3 -14 -1 -28 6
-32 7 -4 8 -3 4 4 -4 7 -2 12 4 12 8 0 10 -9 6 -25 -5 -20 -3 -23 10 -18 14 5
16 2 11 -18 -5 -17 4 -41 31 -87 20 -35 46 -81 57 -101 11 -21 39 -61 63 -88
23 -28 42 -55 42 -60 0 -6 9 -18 20 -28 11 -10 20 -23 20 -28 0 -6 8 -19 17
-29 12 -13 13 -22 6 -29 -8 -8 -16 -2 -28 21 -18 35 -84 130 -91 130 -2 0 25
-44 60 -97 34 -54 65 -103 67 -108 9 -23 133 -194 137 -190 3 3 -7 22 -21 42
-15 21 -50 71 -78 111 -28 40 -48 76 -44 80 3 4 11 -2 18 -13 20 -37 110 -125
126 -125 10 0 22 -5 29 -12 9 -9 12 -5 12 20 0 19 -5 32 -13 32 -14 0 -162
149 -193 195 -21 31 -45 80 -63 129 -6 15 -20 30 -31 33 -15 4 -19 11 -15 27
4 14 3 17 -3 8 -6 -9 -14 -6 -32 13 -13 14 -20 28 -17 32 4 3 14 -2 21 -13 8
-10 17 -17 19 -14 3 3 -15 36 -41 74 -25 38 -48 64 -50 57 -2 -6 2 -19 10 -28
11 -14 11 -16 -2 -11 -9 3 -15 18 -16 39 0 27 -58 159 -69 159 -2 0 -6 -7 -9
-16z m124 -215 c0 -6 -4 -7 -10 -4 -5 3 -10 11 -10 16 0 6 5 7 10 4 6 -3 10
-11 10 -16z"/>
<path d="M2120 1829 c0 -5 5 -7 10 -4 6 3 10 8 10 11 0 2 -4 4 -10 4 -5 0 -10
-5 -10 -11z"/>
<path d="M2310 1805 c-19 -12 -44 -33 -55 -45 -17 -20 -18 -23 -2 -17 21 8 22
-6 2 -23 -11 -9 -15 -9 -15 -1 0 7 -5 9 -10 6 -6 -4 -8 -10 -5 -15 3 -4 -1
-10 -7 -13 -7 -2 -10 -8 -5 -12 4 -5 23 7 42 25 21 20 31 36 24 40 -10 7 36
53 63 63 7 2 11 7 8 9 -3 3 -21 -4 -40 -17z"/>
<path d="M1876 1780 c7 -41 42 -116 63 -133 8 -7 3 6 -11 28 -14 23 -33 63
-41 90 -12 37 -15 41 -11 15z"/>
<path d="M2212 1777 c-12 -13 -22 -27 -22 -33 0 -5 12 4 26 19 14 16 24 30 22
33 -3 2 -14 -6 -26 -19z"/>
<path d="M2355 1760 c-10 -20 -12 -30 -4 -30 6 0 13 9 16 19 3 13 10 18 21 13
15 -5 15 -4 3 11 -18 22 -18 22 -36 -13z"/>
<path d="M2341 1698 c12 -22 24 -29 55 -33 27 -3 31 7 9 25 -8 7 -13 15 -10
19 2 4 -11 7 -29 7 -29 -1 -33 -4 -25 -18z"/>
<path d="M2272 1677 c-27 -29 -27 -39 -2 -55 21 -13 27 -56 10 -67 -5 -3 -10
-14 -10 -23 0 -14 2 -15 10 -2 8 12 10 12 16 -3 3 -10 4 -21 1 -24 -4 -3 2
-18 13 -34 14 -19 17 -28 8 -31 -7 -3 20 -37 61 -80 72 -73 75 -74 93 -56 21
21 23 29 5 22 -14 -5 -67 55 -71 79 -1 7 -5 18 -10 25 -4 7 -6 16 -2 19 3 3
-2 12 -10 20 -8 8 -12 19 -8 24 3 6 0 17 -8 26 -11 14 -11 16 1 9 10 -6 12 -5
7 5 -3 8 -9 22 -12 32 -4 9 -10 17 -15 17 -5 0 -9 8 -9 19 0 10 -7 24 -15 31
-13 10 -15 9 -16 -11 l0 -24 -11 23 c-9 18 -7 26 10 45 26 28 29 45 5 26 -11
-10 -14 -10 -9 -1 12 21 -9 13 -32 -11z"/>
<path d="M1600 1680 c0 -5 5 -10 11 -10 5 0 7 5 4 10 -3 6 -8 10 -11 10 -2 0
-4 -4 -4 -10z"/>
<path d="M2337 1638 c12 -13 30 -38 41 -56 l19 -33 5 25 c3 14 2 23 -3 21 -4
-3 -20 10 -35 30 -14 19 -31 35 -37 35 -6 0 -1 -10 10 -22z"/>
<path d="M1960 1613 c0 -6 8 -17 18 -24 16 -13 16 -13 2 6 -8 11 -16 22 -17
24 -2 2 -3 0 -3 -6z"/>
<path d="M3735 1560 c10 -11 20 -20 23 -20 3 0 -3 9 -13 20 -10 11 -20 20 -23
20 -3 0 3 -9 13 -20z"/>
<path d="M3632 1550 c0 -14 2 -19 5 -12 2 6 2 18 0 25 -3 6 -5 1 -5 -13z"/>
<path d="M2009 1542 c5 -10 18 -25 27 -33 11 -9 9 -2 -6 19 -26 35 -36 42 -21
14z"/>
<path d="M2060 1476 c0 -2 8 -10 18 -17 15 -13 16 -12 3 4 -13 16 -21 21 -21
13z"/>
<path d="M3653 1445 c0 -22 2 -30 4 -17 2 12 2 30 0 40 -3 9 -5 -1 -4 -23z"/>
<path d="M890 1414 c0 -10 5 -26 10 -34 8 -11 9 -7 4 15 -8 37 -14 45 -14 19z"/>
<path d="M2307 1388 c-3 -9 0 -21 6 -28 9 -10 8 -12 -5 -7 -10 4 -18 3 -18 -1
0 -15 40 -72 51 -72 7 0 5 10 -5 25 -17 26 -17 26 11 19 15 -4 37 -14 48 -24
22 -19 45 -33 45 -28 0 7 -89 98 -96 98 -4 0 -12 7 -19 16 -10 15 -13 15 -18
2z"/>
<path d="M3410 1337 c-27 -31 -42 -35 -33 -9 3 9 -31 -19 -75 -62 -45 -44 -79
-82 -76 -85 2 -3 30 21 62 52 32 31 66 57 77 57 27 1 79 44 73 61 -3 9 -12 5
-28 -14z"/>
<path d="M2950 1326 c-14 -7 -43 -22 -65 -32 -31 -13 -36 -19 -21 -22 10 -2
21 0 25 5 3 5 25 17 49 27 23 11 42 23 42 28 0 10 0 10 -30 -6z"/>
<path d="M3652 1290 c0 -14 2 -19 5 -12 2 6 2 18 0 25 -3 6 -5 1 -5 -13z"/>
<path d="M2386 1276 c3 -8 13 -17 22 -21 13 -5 13 -2 -3 15 -21 24 -26 25 -19
6z"/>
<path d="M931 1254 c0 -11 3 -14 6 -6 3 7 2 16 -1 19 -3 4 -6 -2 -5 -13z"/>
<path d="M2386 1237 c3 -10 9 -15 12 -12 3 3 0 11 -7 18 -10 9 -11 8 -5 -6z"/>
<path d="M3645 1239 c-4 -6 -5 -12 -2 -15 2 -3 7 2 10 11 7 17 1 20 -8 4z"/>
<path d="M776 1205 c8 -37 14 -45 14 -19 0 10 -5 26 -10 34 -8 11 -9 7 -4 -15z"/>
<path d="M2438 1223 c7 -3 16 -2 19 1 4 3 -2 6 -13 5 -11 0 -14 -3 -6 -6z"/>
<path d="M2797 1206 c-4 -10 -1 -13 8 -9 8 3 12 9 9 14 -7 12 -11 11 -17 -5z"/>
<path d="M2740 1155 c-19 -14 -29 -25 -23 -25 12 0 73 49 62 50 -3 0 -20 -11
-39 -25z"/>
<path d="M3660 1171 c0 -6 4 -13 10 -16 6 -3 7 1 4 9 -7 18 -14 21 -14 7z"/>
<path d="M791 1144 c0 -11 3 -14 6 -6 3 7 2 16 -1 19 -3 4 -6 -2 -5 -13z"/>
<path d="M951 1134 c0 -11 3 -14 6 -6 3 7 2 16 -1 19 -3 4 -6 -2 -5 -13z"/>
<path d="M2655 1140 c3 -5 8 -10 11 -10 2 0 4 5 4 10 0 6 -5 10 -11 10 -5 0
-7 -4 -4 -10z"/>
<path d="M2700 1066 c0 -10 -10 -27 -22 -37 -31 -28 -18 -31 16 -4 23 19 26
26 17 41 -10 19 -10 19 -11 0z"/>
<path d="M3045 1043 c-34 -18 -93 -62 -148 -110 -21 -19 -41 -32 -45 -29 -4 2
-14 -3 -22 -12 -13 -14 -12 -15 4 -9 14 5 17 3 12 -8 -7 -19 2 -19 34 1 23 14
23 14 3 9 -14 -4 -23 -2 -23 4 0 6 7 11 15 11 8 0 15 4 15 8 0 9 126 112 138
112 4 0 18 9 32 20 30 24 25 25 -15 3z"/>
<path d="M3209 1033 c-13 -17 -13 -17 6 -3 11 8 22 16 24 17 2 2 0 3 -6 3 -6
0 -17 -8 -24 -17z"/>
<path d="M972 1010 c0 -14 2 -19 5 -12 2 6 2 18 0 25 -3 6 -5 1 -5 -13z"/>
<path d="M3105 969 c-78 -55 -115 -89 -98 -89 6 0 16 7 23 15 7 8 43 36 81 61
65 43 90 65 72 63 -4 0 -39 -23 -78 -50z"/>
<path d="M2514 993 c-12 -19 6 -59 33 -76 7 -4 13 -23 13 -42 0 -35 -3 -32 88
-79 15 -8 41 -17 57 -20 29 -6 29 -6 -4 7 -45 17 -77 57 -126 159 -33 67 -44
77 -61 51z"/>
<path d="M2726 996 c5 -13 0 -24 -17 -37 -13 -10 -21 -20 -18 -23 2 -3 18 6
34 19 29 23 29 24 12 42 -17 17 -18 17 -11 -1z"/>
<path d="M2410 970 c0 -19 4 -22 33 -17 21 3 38 -1 51 -12 18 -15 18 -15 5 7
-8 12 -23 25 -34 28 -11 3 -28 8 -37 10 -13 4 -18 0 -18 -16z"/>
<path d="M3209 933 l-24 -28 30 25 c17 14 32 26 34 28 2 1 0 2 -6 2 -5 0 -20
-12 -34 -27z"/>
<path d="M3333 919 c-24 -17 -43 -32 -43 -35 0 -8 60 29 77 49 22 24 15 21
-34 -14z"/>
<path d="M2667 923 c-4 -3 -7 -11 -7 -17 0 -6 5 -5 12 2 6 6 9 14 7 17 -3 3
-9 2 -12 -2z"/>
<path d="M3234 898 c-23 -26 -24 -29 -4 -13 40 33 52 45 43 45 -5 0 -22 -15
-39 -32z"/>
<path d="M2740 913 c0 -6 8 -17 18 -24 16 -13 16 -13 2 6 -8 11 -16 22 -17 24
-2 2 -3 0 -3 -6z"/>
<path d="M2426 895 c-55 -12 -68 -28 -37 -45 14 -7 21 -7 21 0 0 5 5 10 11 10
7 0 9 -10 7 -24 -4 -22 -3 -23 29 -13 20 6 32 16 29 23 -3 7 2 18 10 24 34 29
1 41 -70 25z m54 -5 c0 -5 -5 -10 -11 -10 -5 0 -7 5 -4 10 3 6 8 10 11 10 2 0
4 -4 4 -10z"/>
<path d="M2251 895 c0 -5 6 -21 14 -35 8 -14 14 -20 14 -15 0 6 -6 21 -14 35
-8 14 -14 21 -14 15z"/>
<path d="M2519 860 c-3 -24 -11 -38 -27 -46 -13 -6 -29 -17 -35 -24 -7 -7 7
-3 31 9 45 23 52 19 25 -12 -10 -11 -13 -17 -7 -14 7 4 14 -3 18 -18 7 -26 25
-34 27 -12 3 28 -3 73 -11 82 -5 6 -10 24 -12 40 l-4 30 -5 -35z"/>
<path d="M3259 863 c-13 -16 -12 -17 4 -4 16 13 21 21 13 21 -2 0 -10 -8 -17
-17z"/>
<path d="M1950 841 c0 -6 4 -13 10 -16 6 -3 7 1 4 9 -7 18 -14 21 -14 7z"/>
<path d="M2937 843 c-4 -3 -7 -11 -7 -17 0 -6 5 -5 12 2 6 6 9 14 7 17 -3 3
-9 2 -12 -2z"/>
<path d="M2396 801 c-3 -5 -2 -20 3 -33 7 -16 10 -18 10 -6 1 9 6 18 12 20 7
2 6 8 -4 16 -9 8 -18 9 -21 3z"/>
<path d="M3149 769 l-24 -20 28 17 c15 9 27 18 27 20 0 8 -8 4 -31 -17z"/>
<path d="M2316 747 c3 -10 9 -15 12 -12 3 3 0 11 -7 18 -10 9 -11 8 -5 -6z"/>
<path d="M2420 740 c-24 -19 -24 -19 -2 -13 13 3 22 1 22 -6 0 -6 5 -11 12
-11 9 0 9 3 1 11 -6 6 -9 18 -6 25 7 18 3 17 -27 -6z"/>
<path d="M2838 753 c7 -3 16 -2 19 1 4 3 -2 6 -13 5 -11 0 -14 -3 -6 -6z"/>
<path d="M2883 753 c9 -2 23 -2 30 0 6 3 -1 5 -18 5 -16 0 -22 -2 -12 -5z"/>
<path d="M2953 753 c9 -2 23 -2 30 0 6 3 -1 5 -18 5 -16 0 -22 -2 -12 -5z"/>
<path d="M2495 712 c-4 -18 -17 -40 -29 -49 -20 -15 -14 -14 28 3 15 6 17 4
11 -6 -5 -8 -4 -11 3 -6 5 3 12 3 15 -1 2 -5 2 -1 -1 7 -3 8 -8 31 -12 50 l-7
35 -8 -33z"/>
<path d="M1053 645 c0 -33 2 -45 4 -27 2 18 2 45 0 60 -2 15 -4 0 -4 -33z"/>
<path d="M2380 630 c6 -11 13 -20 16 -20 2 0 0 9 -6 20 -6 11 -13 20 -16 20
-2 0 0 -9 6 -20z"/>
<path d="M2470 574 c0 -8 5 -12 10 -9 6 3 10 10 10 16 0 5 -4 9 -10 9 -5 0
-10 -7 -10 -16z"/>
<path d="M2410 576 c0 -2 8 -10 18 -17 15 -13 16 -12 3 4 -13 16 -21 21 -21
13z"/>
<path d="M1042 540 c0 -19 2 -27 5 -17 2 9 2 25 0 35 -3 9 -5 1 -5 -18z"/>
<path d="M1621 534 c0 -11 3 -14 6 -6 3 7 2 16 -1 19 -3 4 -6 -2 -5 -13z"/>
<path d="M1640 379 c0 -5 5 -7 10 -4 6 3 10 8 10 11 0 2 -4 4 -10 4 -5 0 -10
-5 -10 -11z"/>
</g>
</svg>
